<?xml version="1.0" standalone="no"?>
<!DOCTYPE svg PUBLIC "-//W3C//DTD SVG 20010904//EN"
 "http://www.w3.org/TR/2001/REC-SVG-20010904/DTD/svg10.dtd">
<svg version="1.0" xmlns="http://www.w3.org/2000/svg"
 width="199.000000pt" height="199.000000pt" viewBox="0 0 199.000000 199.000000"
 preserveAspectRatio="xMidYMid meet">
<metadata>
Created by potrace 1.11, written by Peter Selinger 2001-2013
</metadata>
<g transform="translate(0.000000,199.000000) scale(0.100000,-0.100000)"
fill="#000000" stroke="none">
<path d="M1375 1886 c-156 -50 -276 -169 -314 -313 -11 -39 -22 -514 -14 -539
3 -8 79 -12 251 -13 196 -1 259 2 307 14 318 84 430 485 203 725 -106 112
-300 168 -433 126z m210 -220 c90 -41 135 -115 130 -213 -3 -90 -43 -155 -120
-196 -34 -19 -60 -22 -187 -25 l-148 -4 0 141 c0 130 2 146 24 189 61 120 183
164 301 108z"/>
<path d="M493 1740 c-209 -68 -309 -302 -215 -500 20 -40 26 -49 68 -93 89
-94 144 -109 399 -112 110 -1 205 0 210 2 15 5 11 397 -5 453 -24 88 -62 142
-142 202 -27 21 -68 43 -91 50 -63 18 -165 17 -224 -2z m167 -165 c43 -13 91
-56 111 -99 15 -32 19 -65 19 -155 l0 -113 -122 4 c-137 4 -169 15 -212 71
-110 144 31 346 204 292z"/>
<path d="M487 964 c-1 -1 -18 -4 -37 -7 -56 -9 -82 -19 -140 -53 -68 -40 -150
-118 -150 -143 0 -4 -9 -20 -21 -35 -11 -14 -18 -26 -15 -26 3 0 -1 -15 -9
-34 -8 -19 -18 -66 -21 -104 -12 -129 32 -250 125 -342 122 -122 291 -166 444
-114 79 27 113 49 183 118 58 58 100 134 114 206 10 54 16 518 6 527 -5 6
-473 12 -479 7z m269 -216 c4 -4 6 -67 5 -140 -2 -107 -6 -141 -22 -177 -66
-150 -268 -178 -381 -53 -57 63 -70 129 -43 218 26 87 90 142 177 151 29 3 54
7 56 8 7 6 201 -1 208 -7z"/>
<path d="M1047 953 c-2 -5 -3 -105 -2 -223 3 -267 15 -306 119 -403 171 -159
461 -103 561 109 40 85 50 138 36 210 -28 155 -146 275 -300 304 -62 12 -408
14 -414 3z m399 -178 c48 -7 105 -50 128 -99 33 -69 15 -166 -41 -217 -43 -40
-66 -49 -130 -49 -71 0 -130 33 -161 89 -27 50 -42 250 -19 272 15 16 126 17
223 4z"/>
</g>
</svg>
